<?xml version="1.0" standalone="no"?>
<!DOCTYPE svg PUBLIC "-//W3C//DTD SVG 20010904//EN"
 "http://www.w3.org/TR/2001/REC-SVG-20010904/DTD/svg10.dtd">
<svg version="1.0" xmlns="http://www.w3.org/2000/svg"
 width="300.000000pt" height="369.000000pt" viewBox="0 0 300.000000 369.000000"
 preserveAspectRatio="xMidYMid meet">
<metadata>
Created by potrace 1.10, written by Peter Selinger 2001-2011
</metadata>
<g transform="translate(0.000000,369.000000) scale(0.050000,-0.050000)"
fill="#000000" stroke="none">
<path d="M709 7352 c-326 -79 -606 -357 -678 -672 -47 -209 -47 -5771 0 -5980
74 -324 368 -607 705 -678 149 -31 4379 -31 4528 0 337 71 631 354 705 678 47
209 47 5771 0 5980 -74 324 -368 607 -705 678 -158 33 -4417 28 -4555 -6z
m4602 -503 c61 -37 121 -97 158 -158 l61 -98 0 -2903 0 -2903 -61 -98 c-37
-61 -97 -121 -158 -158 l-98 -61 -2213 0 -2213 0 -98 61 c-61 37 -121 97 -158
158 l-61 98 0 2901 0 2902 55 94 c60 102 140 168 253 209 58 20 505 25 2254
21 l2181 -4 98 -61z"/>
<path d="M1226 6427 c-120 -42 -239 -169 -276 -293 -38 -129 -45 -2875 -8
-3024 27 -107 134 -236 245 -296 l83 -44 1730 0 1730 0 83 44 c111 60 218 189
245 296 37 149 30 2895 -8 3024 -40 136 -160 256 -296 296 -151 45 -3401 42
-3528 -3z m3268 -466 c132 -80 127 -33 121 -1369 -6 -1359 2 -1290 -157 -1346
-97 -34 -2819 -34 -2916 0 -159 56 -151 -13 -157 1346 -6 1336 -11 1289 121
1369 62 38 111 39 1494 39 1383 0 1432 -1 1494 -39z"/>
<path d="M1488 2262 c-78 -47 -108 -130 -108 -295 l0 -127 -141 0 c-422 0
-441 -438 -20 -457 l157 -7 7 -157 c19 -414 457 -410 457 4 l0 157 131 0 c431
0 474 434 46 460 l-167 10 -10 167 c-15 252 -167 358 -352 245z"/>
<path d="M3564 2269 c-227 -159 -25 -517 225 -398 216 102 144 429 -95 429
-47 0 -105 -14 -130 -31z"/>
<path d="M4688 2232 c-187 -187 43 -489 267 -352 208 127 123 420 -122 420
-61 0 -91 -14 -145 -68z"/>
<path d="M3308 1312 c-192 -192 37 -492 268 -351 137 83 151 253 31 359 -99
87 -207 84 -299 -8z"/>
<path d="M4498 1350 c-126 -68 -147 -256 -41 -357 152 -146 383 -47 383 163 0
174 -186 279 -342 194z"/>
</g>
</svg>
