<?xml version="1.0" standalone="no"?>
<!DOCTYPE svg PUBLIC "-//W3C//DTD SVG 20010904//EN"
 "http://www.w3.org/TR/2001/REC-SVG-20010904/DTD/svg10.dtd">
<svg version="1.0" xmlns="http://www.w3.org/2000/svg"
 width="300.000000pt" height="300.000000pt" viewBox="0 0 300.000000 300.000000"
 preserveAspectRatio="xMidYMid meet">
<metadata>
Created by potrace 1.10, written by Peter Selinger 2001-2011
</metadata>
<g transform="translate(0.000000,300.000000) scale(0.050000,-0.050000)"
fill="#000000" stroke="none">
<path d="M1850 5972 c-216 -69 -390 -223 -486 -428 l-54 -114 0 -2430 0 -2430
54 -115 c75 -161 229 -317 382 -388 l124 -57 1120 0 1121 0 133 65 c165 82
315 240 380 400 l46 115 0 2410 0 2410 -46 115 c-65 160 -215 318 -380 400
l-133 65 -1091 4 c-844 3 -1108 -2 -1170 -22z m2244 -391 c132 -60 194 -172
203 -365 l7 -156 -1312 0 -1312 0 0 141 c0 199 58 305 210 386 100 53 2086 48
2204 -6z m206 -2111 l0 -1210 -1310 0 -1310 0 0 1210 0 1210 1310 0 1310 0 0
-1210z m-4 -2217 l-6 -626 -56 -85 c-109 -165 -82 -161 -1250 -162 -1406 0
-1304 -69 -1304 889 l0 611 1311 0 1311 0 -6 -627z"/>
<path d="M2863 1480 c-382 -162 -293 -720 115 -720 295 0 467 271 340 535 -76
156 -304 249 -455 185z"/>
</g>
</svg>
