<?xml version="1.0" standalone="no"?>
<!DOCTYPE svg PUBLIC "-//W3C//DTD SVG 20010904//EN"
 "http://www.w3.org/TR/2001/REC-SVG-20010904/DTD/svg10.dtd">
<svg version="1.0" xmlns="http://www.w3.org/2000/svg"
 width="300.000000pt" height="282.000000pt" viewBox="0 0 300.000000 282.000000"
 preserveAspectRatio="xMidYMid meet">
<metadata>
Created by potrace 1.10, written by Peter Selinger 2001-2011
</metadata>
<g transform="translate(0.000000,282.000000) scale(0.050000,-0.050000)"
fill="#000000" stroke="none">
<path d="M1242 5620 c-1098 -233 -1574 -1450 -962 -2458 130 -213 2465 -3010
2586 -3097 171 -122 234 -79 697 475 115 138 627 749 1138 1360 995 1189 1104
1333 1196 1588 378 1045 -339 2143 -1397 2141 -474 -1 -834 -158 -1320 -576
l-181 -155 -165 153 c-482 449 -1106 672 -1592 569z m513 -369 c300 -79 866
-467 1080 -739 22 -28 68 -83 103 -123 l64 -73 82 97 c212 249 538 525 806
682 835 491 1721 -53 1718 -1055 -1 -490 -73 -630 -710 -1383 -247 -292 -1652
-1969 -1786 -2131 -56 -68 -106 -124 -112 -124 -5 0 -168 191 -362 424 -194
233 -701 841 -1127 1351 -920 1101 -1007 1226 -1092 1558 -227 886 520 1734
1336 1516z"/>
</g>
</svg>
