<?xml version="1.0" standalone="no"?>
<!DOCTYPE svg PUBLIC "-//W3C//DTD SVG 20010904//EN"
 "http://www.w3.org/TR/2001/REC-SVG-20010904/DTD/svg10.dtd">
<svg version="1.0" xmlns="http://www.w3.org/2000/svg"
 width="900.000000pt" height="930.000000pt" viewBox="0 0 900.000000 930.000000"
 preserveAspectRatio="xMidYMid meet">
<metadata>
Created by potrace 1.10, written by Peter Selinger 2001-2011
</metadata>
<g transform="translate(0.000000,930.000000) scale(0.100000,-0.100000)"
fill="#000000" stroke="linear-gradient(0deg, rgba(0,234,252,1) 0%, rgba(0,116,195,1) 100%)">
<path d="M977 9286 c-3 -8 -26 -17 -54 -21 -93 -13 -251 -71 -348 -129 -301
-180 -497 -456 -564 -794 -8 -37 -11 -915 -11 -2825 0 -2405 2 -2782 15 -2847
27 -139 68 -244 151 -392 28 -49 144 -185 203 -240 171 -154 363 -246 606
-289 104 -18 171 -19 1303 -19 l1192 0 -2 -577 -3 -578 -330 -5 -330 -6 -47
-28 c-62 -36 -110 -93 -137 -162 -27 -71 -27 -117 1 -191 24 -64 114 -163 148
-163 10 0 22 -5 25 -10 4 -7 626 -10 1834 -10 2018 0 1857 -5 1939 65 77 67
113 173 91 272 -20 91 -65 150 -154 204 -40 24 -43 24 -370 29 l-330 5 0 575
0 575 1080 6 c938 5 1090 8 1155 22 291 62 525 204 699 425 70 89 71 90 122
194 59 117 93 215 105 301 4 30 11 47 20 47 21 0 21 5575 0 5583 -8 3 -17 26
-21 54 -13 91 -74 257 -129 348 -137 227 -329 397 -556 492 -92 39 -160 59
-223 68 -28 4 -51 13 -54 21 -8 21 -7018 21 -7026 0z m6944 -590 c242 -39 432
-226 475 -465 11 -62 13 -449 14 -2117 0 -1853 -1 -2042 -16 -2048 -21 -8
-7787 -8 -7808 0 -15 6 -16 195 -16 2048 1 1664 3 2055 14 2116 42 234 229
422 460 465 110 20 6753 21 6877 1z m489 -5523 c0 -389 -13 -465 -105 -603
-68 -102 -157 -170 -292 -222 l-58 -23 -3465 0 -3465 0 -58 23 c-90 35 -128
56 -191 109 -102 85 -172 212 -195 354 -12 71 -15 641 -4 652 3 4 1767 7 3920
7 l3913 0 0 -297z m-3202 -2020 l-3 -578 -565 -3 c-522 -2 -566 -1 -577 15
-10 13 -13 144 -13 573 0 306 3 560 7 563 3 4 264 7 580 7 l573 0 -2 -577z"/>
</g>
</svg>
