<?xml version="1.0" standalone="no"?>
<!DOCTYPE svg PUBLIC "-//W3C//DTD SVG 20010904//EN"
 "http://www.w3.org/TR/2001/REC-SVG-20010904/DTD/svg10.dtd">
<svg version="1.0" xmlns="http://www.w3.org/2000/svg"
 width="300.000000pt" height="263.000000pt" viewBox="0 0 300.000000 263.000000"
 preserveAspectRatio="xMidYMid meet">
<metadata>
Created by potrace 1.10, written by Peter Selinger 2001-2011
</metadata>
<g transform="translate(0.000000,263.000000) scale(0.050000,-0.050000)"
fill="#000000" stroke="none">
<path d="M5240 5216 c-120 -45 -73 -1 -2040 -1948 -1364 -1350 -1361 -1347
-1433 -1347 -480 -4 -881 -300 -1068 -788 -118 -307 -247 -423 -548 -492
l-139 -32 119 -115 c534 -519 1262 -633 1937 -303 387 189 562 432 587 817
l11 178 932 922 c2256 2232 2302 2278 2346 2370 214 443 -236 916 -704 738z
m335 -381 c48 -45 61 -148 26 -212 -10 -19 -555 -565 -1211 -1213 l-1192
-1177 -131 130 -130 130 1193 1178 c1342 1327 1304 1296 1445 1164z m-2771
-2729 c153 -151 164 -125 -211 -465 l-54 -49 -131 129 -131 129 197 185 c233
219 190 210 330 71z m-651 -651 c183 -187 221 -309 160 -518 -131 -452 -1105
-757 -1574 -494 l-75 42 105 130 c57 71 153 225 211 342 211 419 499 618 901
622 l150 1 122 -125z"/>
</g>
</svg>
